<svg xmlns="http://www.w3.org/2000/svg"
shape-rendering="geometricPrecision"
width="4000" height="4000" viewBox="0 0 1024 1024">
  <metadata>null</metadata>

<path d="
M 209.352 524.31
C 208.564 525.23 209.366 526.469 209.738 527.469
C 210.635 529.884 211.035 532.702 211.288 535.201
C 206.75 537.207 202.554 540.579 198.202 543.008
C 193.433 545.668 188.363 547.673 183.752 550.633
C 181.513 552.07 179.183 553.422 176.99 554.921
C 176.64 555.159 175.268 556.426 174.926 556.139
C 174.842 553.261 175.228 550.384 175.253 547.501
C 175.333 537.936 175.381 528.337 175.093 518.775
C 175.81 517.497 177.933 516.732 179.177 516.04
C 182.211 514.353 185.281 512.747 188.275 510.988
C 197.767 505.411 207.322 499.96 216.878 494.485
C 219.26 493.12 221.531 491.542 223.918 490.202
C 225.349 489.399 227.357 488.784 228.485 487.575
C 229.049 485.076 228.39 481.848 228.456 479.252
C 228.477 478.44 228.842 476.94 228.33 476.237
C 216.036 482.184 204.285 489.325 192.475 496.161
C 188.027 498.736 183.729 501.483 179.363 504.189
C 178.429 504.768 177.524 505.357 176.542 505.857
C 176.272 505.995 175.527 506.586 175.363 506.258
C 175.537 493.332 175.546 480.31 175.086 467.39
C 175.553 466.296 177.645 465.598 178.68 465.035
C 181.894 463.284 185.095 461.519 188.288 459.73
C 200.47 452.901 212.431 445.694 224.643 438.91
C 228.35 436.851 231.993 434.638 235.774 432.717
C 236.441 432.378 238.725 430.981 239.398 431.34
C 239.283 435.985 239.621 440.616 239.642 445.26
C 239.688 455.432 239.566 465.598 239.582 475.768
C 239.589 480.015 239.601 484.261 239.599 488.508
C 239.598 490.28 239.961 492.626 239.303 494.299
C 232.932 498.489 226.02 502.052 219.359 505.774
C 213.584 509.001 208.01 512.575 202.264 515.853
C 197.035 518.836 190.909 521.568 186.271 525.418
C 185.855 526.27 186.102 527.603 186.099 528.558
C 186.092 531.27 186.006 533.957 186.275 536.658
C 188.494 536.845 191.096 534.173 192.926 533.144
C 198.326 530.108 204.205 527.784 209.352 524.31 Z
M 186.405 474
C 186.331 474.123 186.257 474.246 186.183 474.369
C 186.405 478.269 186.325 482.302 186.147 486.204
C 187.373 486.259 188.968 484.999 190.022 484.417
C 192.781 482.894 195.626 481.588 198.338 479.976
C 206.229 475.289 214.126 470.613 222.016 465.923
C 224.129 464.667 226.447 463.728 228.532 462.449
C 229.286 459.047 228.501 454.616 228.264 451.154
C 227.614 450.504 226.123 451.197 225.431 451.587
C 222.924 452.999 220.499 454.572 218 456.004
C 207.488 462.027 196.632 467.489 186.405 474 Z"
opacity="1" fill="rgb(117,114,115)" fill-rule="evenodd" />
<path d="
M 209.352 524.31
C 215.457 520.636 221.589 517.008 227.703 513.345
C 231.505 511.067 235.087 508.394 239.168 506.643
C 239.592 507.196 239.193 509.498 239.173 510.208
C 239.087 513.244 238.916 516.279 238.893 519.316
C 238.83 527.461 239.191 535.602 239.117 543.749
C 239.091 546.615 239.009 549.456 239.073 552.318
C 239.099 553.476 238.851 555.059 239.209 556.154
C 235.527 555.292 231.763 556.681 228.151 556.149
C 228.421 548.775 227.761 541.381 227.893 534.003
C 227.928 532.023 227.963 530.046 228.035 528.069
C 228.052 527.597 228.293 526.522 227.951 526.137
C 222.206 528.748 216.801 532.146 211.288 535.201
C 211.035 532.702 210.635 529.884 209.738 527.469
C 209.366 526.469 208.564 525.23 209.352 524.31 Z"
opacity="1" fill="rgb(224,54,51)" fill-rule="evenodd" />
<path d="
M 248.45 391.217
C 248.563 390.959 252.371 393.194 253.123 393.6
C 258.508 396.509 263.83 399.524 269.186 402.487
C 278.204 407.479 287.205 412.57 296.139 417.697
C 298.651 419.139 301.146 420.611 303.669 422.033
C 305.055 422.814 306.922 423.529 308.046 424.655
C 308.203 429.877 307.868 435.086 307.902 440.304
C 307.996 454.532 308.207 468.768 308.221 483.003
C 308.226 487.836 308.122 492.679 308.23 497.511
C 308.258 498.769 308.209 500.065 308.395 501.309
C 308.415 501.439 308.658 502.375 308.591 502.452
C 304.486 501.285 300.939 498.241 297.166 496.342
C 296.558 495.159 296.921 493.034 296.919 491.691
C 296.913 487.461 297.214 483.237 297.218 479.001
C 297.228 468.501 297.19 458.003 297.149 447.503
C 297.13 442.477 297.69 437.112 297.097 432.128
C 295.751 430.744 293.86 429.951 292.211 428.986
C 289.373 427.327 286.543 425.665 283.677 424.054
C 278.117 420.93 272.69 417.632 267.037 414.671
C 264.725 413.46 262.525 411.939 260.093 410.986
C 259.342 426.928 259.899 443.031 259.934 459
C 259.948 465.337 260.026 471.669 260.077 478.005
C 260.103 481.299 259.769 484.854 260.22 488.111
C 261.562 489.203 263.342 489.843 264.863 490.653
C 267.749 492.19 270.568 493.849 273.459 495.377
C 280.985 499.356 288.169 503.959 295.523 508.237
C 298.673 510.069 302.107 511.428 305.175 513.396
C 306.058 513.962 307.489 514.578 308.077 515.444
C 307.855 519.578 307.776 524.156 308.218 528.277
C 307.038 528.2 304.943 526.333 303.903 525.708
C 300.318 523.553 296.679 521.508 292.978 519.559
C 278.143 511.746 263.519 503.308 249.029 494.887
C 247.962 493.473 248.771 489.444 248.818 487.655
C 248.987 481.202 248.879 474.831 248.758 468.383
C 248.433 451.107 248.579 433.781 248.588 416.502
C 248.592 408.252 249.728 399.385 248.45 391.217 Z"
opacity="1" fill="rgb(120,118,119)" fill-rule="evenodd" />
<path d="
M 248.468 508.12
C 248.58 507.621 248.268 507.018 248.544 506.586
C 248.656 506.41 248.884 506.831 249.07 506.927
C 249.455 507.125 249.884 507.293 250.283 507.483
C 252.159 508.377 254.046 509.356 255.866 510.362
C 263.037 514.326 270.113 518.52 277.243 522.563
C 288.623 529.016 300.006 535.481 311.626 541.498
C 313.836 542.642 316.193 543.495 318.38 544.671
C 323.259 547.295 327.998 550.213 332.842 552.907
C 334.023 553.564 335.169 554.909 336.315 555.422
C 335.88 555.786 335.038 555.467 334.507 555.445
C 333.223 555.391 331.874 555.457 330.576 555.459
C 326.535 555.466 322.487 555.584 318.443 555.589
C 316.792 555.591 314.947 555.975 313.326 555.661
C 307.532 550.885 300.264 547.825 293.663 544.252
C 282.271 538.087 271.035 531.539 259.77 525.166
C 259.672 532.953 259.61 540.723 259.712 548.513
C 259.738 550.435 259.759 552.36 259.697 554.282
C 259.692 554.453 259.753 555.867 259.59 555.913
C 255.888 555.911 252.157 555.776 248.46 555.915
C 248.286 545.785 248.314 535.637 248.297 525.504
C 248.287 519.795 247.824 513.796 248.468 508.12 Z"
opacity="1" fill="rgb(219,55,51)" fill-rule="evenodd" />
<path d="
M 342.961 490.617
C 343.725 486.429 343.932 482.256 345.19 478.139
C 348.248 468.133 354.891 459.458 365.199 456.302
C 374.665 453.403 388.287 453.725 396.832 459.187
C 402.233 462.639 406.282 467.989 408.233 474.073
C 409.174 477.009 410.488 480.532 409.956 483.674
C 408.889 484.29 406.248 483.774 405.004 483.768
C 400.745 483.745 396.257 483.276 392.029 483.901
C 391.265 480.457 390.947 476.812 388.32 474.134
C 382.984 468.696 370.633 469.057 366.012 475.266
C 361.921 480.762 361.874 487.44 361.621 493.995
C 361.422 499.136 361.124 504.582 362.145 509.661
C 364.043 519.103 371.763 523.14 380.883 521.651
C 387.706 520.537 394.768 514.376 391.95 506.826
C 390.555 506.404 388.294 506.883 386.819 506.974
C 382.969 507.209 378.496 507.85 374.678 507.227
C 374.947 502.611 374.586 497.935 374.761 493.307
C 377.56 491.878 382.412 492.74 385.497 492.73
C 393.587 492.702 401.745 492.952 409.824 492.742
C 410.443 502.936 410.281 513.285 410.143 523.504
C 410.106 526.291 410.01 529.06 410.083 531.843
C 410.113 532.976 410.531 534.562 410.336 535.629
C 405.877 535.901 401.352 535.099 396.937 535.956
C 396.543 533.69 396.973 531.354 396.554 529.092
C 394.472 529.818 393.093 532.782 391.133 533.989
C 387.251 536.379 381.419 537.209 376.954 537.605
C 373.496 537.912 370 537.499 366.643 536.654
C 361.754 535.423 356.56 532.98 352.776 529.61
C 349.902 527.05 347.946 523.391 346.461 519.894
C 342.555 510.689 342.301 500.466 342.961 490.617 Z"
opacity="1" fill="rgb(115,113,115)" fill-rule="evenodd" />
<path d="
M 343.978 584.121
C 344.595 579.821 346.076 575.245 350.232 573.106
C 356.535 569.862 366.57 573.333 367.002 581.319
C 364.857 581.356 362.321 581.887 360.225 581.656
C 359.73 577.133 353.76 574.956 351.373 579.528
C 349.879 582.39 349.782 587.985 351.438 590.763
C 352.856 593.141 356.243 594.455 358.635 592.581
C 359.649 591.787 359.933 590.578 360.602 589.542
C 362.48 589.45 365.051 589.235 366.849 589.664
C 365.415 595.911 357.55 601.071 351.386 598.116
C 346.255 595.656 343.623 589.642 343.978 584.121 Z"
opacity="1" fill="rgb(114,114,116)" fill-rule="evenodd" />
<path d="
M 369.966 583.105
C 370.376 580.367 371.393 577.699 373.314 575.662
C 377.177 571.568 384.759 570.689 389.167 574.46
C 393.429 578.105 393.805 584.628 392.932 589.75
C 391.732 596.787 382.644 600.776 376.427 597.539
C 371.304 594.873 369.144 588.605 369.966 583.105 Z
M 376.385 582.587
C 375.884 585.413 376.251 589.484 378.277 591.676
C 381.842 595.531 386.38 591.727 387.128 587.706
C 387.673 584.773 387.705 581.221 385.688 578.823
C 382.208 574.689 377.189 578.051 376.385 582.587 Z"
opacity="1" fill="rgb(119,118,120)" fill-rule="evenodd" />
<path d="
M 398.473 591.12
C 399.277 584.978 397.422 578.32 398.72 572.27
C 400.268 572.264 403.022 571.762 404.417 572.42
C 404.418 573.652 404.298 575.044 404.576 576.243
C 405.276 575.952 405.654 575.063 406.198 574.548
C 407.34 573.466 408.703 572.633 410.256 572.311
C 414.312 571.471 419.026 573.486 420.156 577.714
C 420.606 579.398 420.404 581.158 420.48 582.87
C 420.704 587.97 420.365 593.132 420.742 598.22
C 418.692 598.229 416.456 598.332 414.444 597.953
C 414.31 594.088 414.36 590.201 414.383 586.332
C 414.394 584.345 414.673 582.066 414.028 580.154
C 412.488 575.59 407.071 576.73 405.138 580.368
C 404.953 586.04 405.848 592.271 404.877 597.865
C 402.71 598.016 400.441 598.081 398.269 598.093
C 398.452 595.781 398.403 593.44 398.473 591.12 Z"
opacity="1" fill="rgb(120,120,123)" fill-rule="evenodd" />
<path d="
M 422.271 475.867
C 427.174 475.517 432.326 475.45 437.235 475.742
C 437.603 476.314 437.508 477.437 437.555 478.128
C 437.703 480.307 437.58 482.478 437.637 484.655
C 438.182 484.984 439.27 482.353 439.667 481.919
C 440.901 480.566 442.733 479.565 444.24 478.544
C 448.901 475.387 455.417 474.396 460.981 475.451
C 461.505 481.882 461.44 488.454 461.205 494.898
C 457.027 494.888 453.024 493.664 448.771 494.189
C 447.374 494.362 446.01 494.613 444.703 495.159
C 437.645 498.104 438.86 505.747 438.87 512.003
C 438.879 516.997 438.687 522.016 438.87 527.006
C 438.943 529.009 439.061 531.009 439.067 533.013
C 439.069 533.764 439.268 535.012 438.923 535.69
C 433.364 535.833 427.763 535.434 422.214 535.751
C 422.621 515.838 421.063 495.747 422.271 475.867 Z"
opacity="1" fill="rgb(118,116,117)" fill-rule="evenodd" />
<path d="
M 425.79 591.522
C 426.004 591.122 426.198 590.739 426.459 590.368
C 427.395 589.783 430.515 589.799 431.367 590.542
C 431.909 591.437 432.416 592.569 433.303 593.175
C 435.228 594.489 439.265 593.779 440.504 591.873
C 441.416 588.845 437.63 587.896 435.374 587.619
C 430.073 586.97 424.797 584.2 426.671 577.953
C 429.097 569.864 444.925 569.833 446.029 578.924
C 444.89 579.821 442.472 579.807 441.074 579.926
C 439.609 576.605 434.648 574.636 431.943 578.055
C 430.83 581.332 435.663 581.841 437.659 582.404
C 441.87 583.591 447.267 584.839 446.698 590.324
C 446.609 591.189 446.406 592.069 446.11 592.887
C 444.164 598.252 435.742 599.993 430.905 598.063
C 428.325 597.033 424.89 594.703 425.79 591.522 Z"
opacity="1" fill="rgb(119,119,121)" fill-rule="evenodd" />
<path d="
M 449.978 573.099
C 450.022 572.869 450.065 572.638 450.109 572.407
C 451.197 572.296 452.249 572.397 453.337 572.399
C 453.331 570.136 453.496 567.856 453.576 565.593
C 454.82 565.018 458.106 564.912 459.408 565.38
C 459.563 567.589 459.392 569.826 459.41 572.034
C 460.795 572.063 462.278 572.088 463.633 572.388
C 464.39 573.581 463.583 575.899 463.829 577.288
C 462.935 576.919 460.026 576.5 459.414 577.322
C 459.037 581.721 458.642 587.086 459.368 591.444
C 460.324 593.855 462.608 592.734 464.54 592.812
C 464.811 594.295 464.906 595.837 464.777 597.339
C 463.63 597.775 462.267 598.045 461.038 598.116
C 460.106 598.171 459.142 598.176 458.222 597.995
C 452.167 596.804 453.194 589.95 453.157 585.366
C 453.136 582.734 452.819 580.001 452.984 577.384
C 452.246 577.02 451.054 576.985 450.221 576.953
C 449.381 576.067 449.772 574.236 449.978 573.099 Z"
opacity="1" fill="rgb(121,121,124)" fill-rule="evenodd" />
<path d="
M 465.431 497.609
C 465.767 495.9 465.796 494.154 466.272 492.462
C 467.378 488.536 470.07 484.018 473.028 481.202
C 478.79 475.719 486.405 474.574 494.039 474.714
C 500.636 474.836 507.789 476.319 512.813 480.919
C 519.608 487.141 519.859 494.879 519.891 503.502
C 519.901 506.179 520.392 509.459 519.743 512.062
C 516.37 512.323 512.888 512.033 509.5 512.058
C 504.333 512.097 499.171 512.386 494.002 512.408
C 490.357 512.424 485.705 511.636 482.209 512.683
C 482.572 514.918 483.253 517.315 484.707 519.108
C 488.578 523.88 496.304 523.835 501.68 522.108
C 503.795 521.428 505.975 520.871 508.061 520.109
C 509.208 519.689 510.678 518.773 511.915 518.895
C 512.492 524.064 511.826 529.27 511.902 534.452
C 511.278 534.886 510.035 534.865 509.293 535.062
C 507.048 535.657 504.8 536.332 502.512 536.737
C 494.284 538.197 486.636 537.832 478.959 534.292
C 475.304 532.606 471.817 530.328 469.612 526.882
C 464.281 518.549 464.605 507.084 465.431 497.609 Z
M 482.404 498.095
C 482.311 499.121 482.364 500.105 482.638 501.101
C 489.496 501.11 496.355 501.231 503.214 501.226
C 502.992 497.624 502.916 494.132 500.025 491.486
C 496.859 488.588 489.089 488.244 485.786 491.139
C 483.764 492.912 482.916 495.54 482.404 498.095 Z"
opacity="1" fill="rgb(116,115,116)" fill-rule="evenodd" />
<path d="
M 468.834 572.474
C 470.691 572.459 473.727 573.213 475.44 572.477
C 474.914 573.489 474.539 574.656 474.46 575.791
C 474.455 576.23 475.19 575.433 475.337 575.288
C 476.086 574.55 476.606 573.562 477.455 572.925
C 479.384 571.48 482.95 571.99 485.212 572.166
C 485.983 573.871 484.975 576.518 484.796 578.287
C 482.624 578.41 480.674 577.036 478.465 577.928
C 475.561 579.1 475.316 581.865 475.242 584.577
C 475.125 588.819 475.751 593.44 475.209 597.628
C 473.171 597.487 470.947 597.685 468.923 597.921
C 468.009 596.859 468.697 592.944 468.71 591.499
C 468.75 587.165 468.79 582.83 468.791 578.496
C 468.791 576.591 468.391 574.322 468.834 572.474 Z"
opacity="1" fill="rgb(119,119,121)" fill-rule="evenodd" />
<path d="
M 488.49 576.117
C 488.613 575.021 488.615 573.934 488.851 572.852
C 490.539 572.502 492.314 572.341 494.023 572.605
C 494.88 574.073 494.637 576.186 494.691 577.846
C 494.824 581.993 494.35 586.584 495.143 590.658
C 495.497 591.323 496.138 591.61 496.781 591.969
C 499.737 593.623 502.087 592.571 503.988 589.813
C 504.433 588.132 504.191 586.225 504.206 584.498
C 504.241 580.476 504.08 576.415 504.273 572.4
C 506.413 572.307 508.539 572.266 510.681 572.314
C 511.326 578.417 510.762 584.866 510.696 591
C 510.671 593.325 510.354 595.866 510.773 598.162
C 508.942 598.01 507.061 598.203 505.22 598.102
C 505.148 596.931 505.248 595.729 505.318 594.559
C 505.327 594.418 505.56 593.465 505.276 593.414
C 501.713 599.523 492.692 600.755 489.389 593.541
C 488.557 591.722 488.578 589.569 488.497 587.608
C 488.341 583.794 488.326 579.93 488.49 576.117 Z"
opacity="1" fill="rgb(119,120,122)" fill-rule="evenodd" />
<path d="
M 515.448 583.108
C 516.201 578.747 517.95 574.353 522.513 572.759
C 528.002 570.842 538.212 573.729 538.046 580.968
C 536.986 581.518 533.795 581.536 532.654 581.28
C 531.165 576.392 524.362 575.246 522.27 580.377
C 520.98 583.541 520.674 587.909 522.643 590.856
C 524.015 592.91 527.365 594.536 529.716 593.111
C 531.02 592.32 531.746 590.58 532.346 589.251
C 534.133 589.312 535.923 589.341 537.71 589.41
C 537.201 596.683 527.916 600.789 521.723 597.613
C 516.339 594.852 514.765 588.723 515.448 583.108 Z"
opacity="1" fill="rgb(121,120,123)" fill-rule="evenodd" />
<path d="
M 523.9 475.813
C 527.861 474.916 532.533 475.402 536.576 475.379
C 538.225 475.369 540.309 474.983 541.877 475.515
C 543.487 478.859 543.87 482.785 544.764 486.378
C 546.604 493.781 548.227 501.24 550.097 508.635
C 550.765 511.274 551.696 513.871 552.131 516.562
C 552.246 517.271 552.243 519.506 552.773 519.921
C 553.437 518.849 553.632 517.009 553.928 515.769
C 554.616 512.89 555.285 510.006 556.031 507.141
C 558.742 496.73 561.531 486.135 563.773 475.619
C 569.514 475.164 575.438 475.772 581.198 475.755
C 581.278 478.01 579.439 481.141 578.875 483.388
C 577.08 490.539 574.914 497.567 572.855 504.643
C 570.104 514.096 567.133 523.568 564.679 533.099
C 562.754 540.573 561.07 548.482 554.142 553.026
C 546.674 557.924 538.777 557.763 530.238 557.47
C 529.392 552.705 530.22 547.461 530.261 542.649
C 535.033 542.331 539.922 542.973 542.729 538.192
C 543.195 536.517 542.175 534.371 541.681 532.774
C 540.526 529.045 539.512 525.274 538.395 521.532
C 536.825 516.276 534.782 511.175 533.163 505.937
C 530.057 495.891 527.144 485.814 523.9 475.813 Z"
opacity="1" fill="rgb(117,115,116)" fill-rule="evenodd" />
<path d="
M 540.764 573.28
C 541.773 573.06 542.818 572.986 543.848 572.909
C 543.887 570.565 543.891 568.179 543.699 565.842
C 545.846 565.69 547.983 565.765 550.133 565.831
C 550.252 568.094 549.714 570.824 550.371 572.996
C 551.759 572.897 553.223 572.756 554.61 572.89
C 554.963 574.186 554.809 575.869 554.826 577.216
C 553.329 577.395 551.755 577.279 550.249 577.235
C 550.22 580.656 549.725 584.061 549.722 587.504
C 549.72 589.187 549.554 591.125 550.467 592.617
C 551.439 593.415 553.585 593.198 554.774 593.161
C 554.686 594.562 555.186 596.776 554.214 597.934
C 551.148 599.463 545.759 597.691 544.406 594.504
C 543.56 592.51 543.751 590.187 543.744 588.067
C 543.733 584.421 543.729 580.763 543.769 577.121
C 542.888 577.103 542.011 577.156 541.13 577.147
C 540.884 575.865 540.878 574.577 540.764 573.28 Z"
opacity="1" fill="rgb(121,120,122)" fill-rule="evenodd" />
<path d="
M 559.857 572.849
C 561.804 572.598 563.722 572.678 565.677 572.613
C 566.306 574.297 566.122 576.712 566.164 578.513
C 566.27 583.006 566.059 587.514 566.075 592.01
C 566.081 593.487 566.114 594.963 566.117 596.439
C 566.118 596.787 566.279 597.682 566.03 597.959
C 564.042 597.942 562.066 597.821 560.075 597.853
C 559.431 593.956 559.705 589.754 559.704 585.815
C 559.703 581.504 559.466 577.144 559.857 572.849 Z"
opacity="1" fill="rgb(126,126,128)" fill-rule="evenodd" />
<path d="
M 560.182 562.688
C 562.015 562.601 563.866 562.7 565.691 562.557
C 565.924 564.527 566.324 566.4 566.338 568.401
C 565.001 569.266 561.764 568.788 560.23 568.603
C 560.223 566.64 560.297 564.645 560.182 562.688 Z"
opacity="1" fill="rgb(127,128,131)" fill-rule="evenodd" />
<path d="
M 571.448 583.11
C 571.749 580.305 572.794 577.302 574.789 575.246
C 578.939 570.971 586.815 571.297 590.986 575.376
C 594.48 578.793 594.704 583.598 594.184 588.196
C 593.954 590.232 593.541 592.312 592.265 593.976
C 588.716 598.606 581.046 600.156 576.195 596.772
C 571.996 593.844 570.934 587.892 571.448 583.11 Z
M 577.479 586.123
C 577.475 587.901 577.722 590.015 578.844 591.459
C 580.6 593.721 584.516 594.164 586.552 592.045
C 588.359 590.164 588.356 587.43 588.361 584.972
C 588.369 581.482 585.453 574.347 580.653 577.588
C 577.855 579.478 577.485 583.018 577.479 586.123 Z"
opacity="1" fill="rgb(120,120,123)" fill-rule="evenodd" />
<path d="
M 577.257 453.712
C 581.607 454.501 586.663 452.614 590.936 453.946
C 591.899 455.567 592.014 457.558 592.591 459.34
C 593.94 463.51 595.308 467.705 596.731 471.851
C 600.702 483.423 604.597 495.021 608.749 506.526
C 610.205 510.561 611.514 514.638 612.934 518.684
C 613.369 519.925 613.466 522.204 614.329 523.127
C 615.409 520.986 615.753 518.333 616.5 516.041
C 618.199 510.834 620.031 505.667 621.757 500.469
C 626.956 484.811 632.02 469.095 637.155 453.426
C 641.332 452.983 646.013 453.06 650.191 453.477
C 650.196 453.478 649.32 456.265 649.184 456.643
C 648.494 458.566 647.927 460.542 647.275 462.479
C 645.187 468.689 643.077 474.879 640.911 481.063
C 634.591 499.114 628.529 517.285 622.666 535.494
C 621.053 535.93 619.164 535.758 617.503 535.759
C 613.675 535.761 609.842 535.44 606.023 535.441
C 604.627 532.942 603.951 529.735 602.971 527.035
C 600.992 521.579 598.999 516.137 597.181 510.625
C 593.009 497.976 588.181 485.527 583.862 472.944
C 581.677 466.579 579.902 459.893 577.257 453.712 Z"
opacity="1" fill="rgb(212,54,48)" fill-rule="evenodd" />
<path d="
M 599.937 591.124
C 600.764 585.165 600.128 578.554 600.084 572.536
C 602.051 572.218 604.129 572.339 606.118 572.342
C 606.207 573.66 606.072 574.987 605.924 576.295
C 605.98 576.828 606.762 575.106 606.868 574.927
C 607.437 573.966 608.325 573.136 609.344 572.681
C 612.33 571.347 615.747 571.824 618.321 573.791
C 623.323 577.613 621.918 584.993 621.898 590.519
C 621.89 592.907 622.184 595.655 621.732 597.999
C 619.787 598.283 617.468 598.22 615.537 597.874
C 615.222 593.676 615.715 589.463 615.582 585.257
C 615.525 583.454 615.756 581.29 614.77 579.69
C 612.615 576.194 607.527 576.172 606.305 580.534
C 605.748 582.525 606.155 585.149 606.14 587.207
C 606.115 590.708 605.695 594.273 605.825 597.762
C 603.871 597.944 601.894 597.689 599.936 597.911
C 599.626 595.746 599.795 593.303 599.937 591.124 Z"
opacity="1" fill="rgb(119,119,122)" fill-rule="evenodd" />
<path d="
M 639.484 583.119
C 639.984 579.823 640.684 576.676 643.428 574.464
C 646.615 571.896 654.385 571.144 656.211 575.934
C 656.285 576.388 656.48 575.223 656.496 575.129
C 656.625 574.315 656.664 573.129 657.344 572.618
C 658.999 572.664 660.713 572.753 662.361 572.655
C 663.311 578.938 662.282 585.73 662.368 592.07
C 662.422 596 663.096 600.076 660.777 603.573
C 655.95 610.854 643.099 609.967 640.538 601.31
C 642.344 600.644 644.571 600.424 646.476 600.855
C 646.915 601.616 647.208 602.443 647.682 603.193
C 649.831 604.409 654.281 602.995 655.858 601.282
C 656.722 599.282 656.243 596.241 656.052 594.122
C 654.743 595.276 653.186 596.52 651.587 597.234
C 650.727 597.617 649.732 597.841 648.795 597.905
C 641.143 598.425 639.162 588.964 639.484 583.119 Z
M 645.935 585.119
C 645.829 587.844 646.536 590.79 648.97 592.358
C 652.164 594.416 656.071 591.856 656.336 588.315
C 656.545 585.512 656.794 581.257 654.931 578.917
C 653.142 576.669 649.702 576.696 647.858 578.822
C 646.457 580.439 646.015 583.045 645.935 585.119 Z"
opacity="1" fill="rgb(114,113,115)" fill-rule="evenodd" />
<path d="
M 657.466 458.121
C 657.739 456.702 657.565 455.155 657.668 453.709
C 661.372 453.553 665.086 453.692 668.791 453.599
C 668.53 456.893 669 460.153 668.925 463.413
C 665.103 463.594 661.287 463.214 657.481 463.376
C 657.073 461.837 657.38 459.713 657.466 458.121 Z"
opacity="1" fill="rgb(206,52,50)" fill-rule="evenodd" />
<path d="
M 657.418 477.117
C 657.461 476.924 657.505 476.731 657.548 476.538
C 658.733 475.744 660.167 475.896 661.554 475.907
C 663.786 475.924 666.063 475.805 668.284 476.043
C 669.089 481.24 668.628 486.759 668.607 492.005
C 668.571 501.337 668.554 510.67 668.55 520.002
C 668.548 523.503 668.535 527.003 668.53 530.503
C 668.528 532.131 668.231 534.179 668.659 535.745
C 665.108 535.265 661.391 536.027 657.811 535.631
C 657.079 534.739 657.351 532.786 657.324 531.674
C 657.232 527.95 657.217 524.226 657.222 520.501
C 657.236 511.335 657.349 502.17 657.297 493.004
C 657.268 487.824 656.701 482.253 657.418 477.117 Z"
opacity="1" fill="rgb(216,59,53)" fill-rule="evenodd" />
<path d="
M 668.957 575.116
C 669.056 574.286 669.111 573.452 669.113 572.616
C 670.852 572.626 672.958 572.418 674.638 572.902
C 674.639 573.753 674.488 575.249 674.914 575.962
C 675.848 575.253 676.478 574.256 677.439 573.58
C 680.224 571.621 683.141 571.896 685.992 573.554
C 685.568 574.779 684.437 577.082 683.492 577.983
C 681.991 577.854 680.568 577.421 679.056 577.777
C 675.993 578.498 675.324 581.053 675.023 583.781
C 674.528 588.254 675.679 592.882 674.835 597.31
C 673.537 597.625 670.64 598.549 669.506 597.606
C 668.085 596.423 668.795 593.353 668.813 591.733
C 668.875 586.204 668.545 580.635 668.957 575.116 Z"
opacity="1" fill="rgb(121,120,122)" fill-rule="evenodd" />
<path d="
M 682.357 486.069
C 682.865 484.397 683.389 482.837 684.354 481.362
C 689.887 472.906 702.419 475.718 711.002 475.729
C 717.55 475.737 724.381 474.897 728.399 481.323
C 731.489 486.266 730.2 492.762 730.164 498.298
C 730.15 500.425 730.557 503.204 729.654 505.187
C 728.699 507.285 725.901 509.639 723.652 510.219
C 721.16 510.861 718.178 510.381 715.618 510.424
C 708.376 510.543 700.818 509.939 693.625 510.728
C 693.705 514.058 693.567 517.398 693.55 520.729
C 693.543 522.214 693.333 524.05 694.397 525.255
C 696.172 527.261 700.706 525.928 703.088 525.917
C 708.141 525.894 713.201 526.191 718.255 526.264
C 721.29 526.308 724.62 525.98 727.61 526.476
C 728.186 529.421 727.471 532.77 727.631 535.776
C 719.338 535.649 711.012 535.839 702.716 535.873
C 698.053 535.892 692.919 536.374 688.689 534.016
C 681.322 529.908 682.101 522.295 682.181 515
C 682.243 509.333 682.06 503.671 682.08 498.005
C 682.093 494.153 681.537 489.845 682.357 486.069 Z
M 693.769 487.005
C 692.994 490.424 693.578 494.508 693.628 498.005
C 693.639 498.79 693.3 501.003 693.967 501.41
C 699.311 501.204 704.655 501.374 710.003 501.363
C 712.834 501.356 715.716 501.584 718.501 500.987
C 718.933 500.623 718.76 499.534 718.752 498.995
C 718.729 497.462 718.764 495.928 718.846 494.397
C 718.991 491.714 720.207 488.129 717.91 486.084
C 716.46 484.793 714.023 485.279 712.252 485.399
C 707.865 485.695 703.408 485.301 699.003 485.345
C 696.922 485.366 694.843 484.77 693.769 487.005 Z"
opacity="1" fill="rgb(220,56,50)" fill-rule="evenodd" />
<path d="
M 686.942 581.597
C 688.535 572.817 699.614 569.086 706.398 574.778
C 710.318 578.067 711.171 583.847 710.183 588.666
C 708.405 597.342 697.71 601.893 690.737 595.713
C 687.263 592.635 686.142 586.001 686.942 581.597 Z
M 692.968 583.603
C 692.761 586.29 692.751 589.402 694.674 591.509
C 696.756 593.79 700.549 594.26 702.587 591.651
C 703.534 590.439 703.777 588.802 703.889 587.316
C 704.116 584.306 703.966 580.133 701.534 577.974
C 697.46 574.359 693.271 579.676 692.968 583.603 Z"
opacity="1" fill="rgb(118,117,119)" fill-rule="evenodd" />
<path d="
M 715.444 575.62
C 715.572 574.645 715.631 573.651 715.657 572.669
C 717.514 572.488 719.424 572.349 721.287 572.502
C 721.718 573.734 721.433 575.497 721.434 576.806
C 721.437 579.723 721.441 582.641 721.422 585.559
C 721.412 587.063 721.074 588.992 721.834 590.357
C 723.834 593.944 729.756 593.202 731.063 589.338
C 731.126 583.853 731.315 578.33 731.319 572.829
C 733.386 572.551 735.536 572.824 737.622 572.76
C 737.332 579.172 737.327 585.571 737.468 591.998
C 737.502 593.502 737.587 595.006 737.594 596.51
C 737.595 596.759 737.76 597.837 737.522 597.909
C 735.722 597.916 733.333 598.585 731.638 598.035
C 731.381 596.831 731.696 595.433 731.171 594.3
C 727.362 599.41 719.454 600.16 716.425 593.644
C 715.301 591.228 715.317 588.536 715.286 585.924
C 715.245 582.493 715.235 579.046 715.444 575.62 Z"
opacity="1" fill="rgb(117,116,118)" fill-rule="evenodd" />
<path d="
M 736.99 475.387
C 740.543 475.059 744.074 475.159 747.64 475.194
C 752.429 490.992 755.657 507.491 759.441 523.566
C 760.647 519.921 761.086 515.794 761.922 512.033
C 763.761 503.758 765.749 495.505 767.624 487.237
C 768.52 483.282 768.942 479.172 770.453 475.388
C 772.455 475.106 774.583 475.583 776.599 475.63
C 778.937 475.683 781.251 475.26 783.576 475.633
C 784.603 477.567 784.708 480.135 785.076 482.274
C 785.694 485.867 786.521 489.428 787.198 493.011
C 789.128 503.218 792.311 513.196 794.032 523.43
C 794.539 523.384 794.784 521.097 794.87 520.629
C 795.393 517.774 796.214 514.986 796.918 512.17
C 799.976 499.951 802.655 487.619 805.62 475.382
C 809.169 474.671 813.215 475.465 816.809 475.503
C 813.916 486.083 811.336 496.75 808.518 507.354
C 806.023 516.743 803.341 526.156 801.55 535.713
C 801.033 536.154 798.46 535.683 797.737 535.674
C 794.187 535.63 790.743 535.851 787.218 536.109
C 785.009 533.968 785.163 529.976 784.468 527.149
C 782.688 519.912 781.412 512.581 779.742 505.322
C 779.053 502.324 778.583 499.275 777.804 496.296
C 777.573 495.415 776.955 491.62 776.459 492.211
C 774.089 500.61 772.856 509.313 770.996 517.835
C 769.72 523.683 767.803 529.862 767.217 535.806
C 766.392 536.267 764.054 535.731 763.05 535.7
C 759.495 535.592 755.732 536.21 752.217 535.82
C 750.977 534.516 751.247 532.326 750.901 530.693
C 750.18 527.288 749.297 523.88 748.352 520.529
C 745.659 510.984 743.08 501.445 740.702 491.816
C 739.423 486.639 738.672 480.513 736.37 475.707
C 736.577 475.6 736.784 475.494 736.99 475.387 Z"
opacity="1" fill="rgb(214,52,49)" fill-rule="evenodd" />
<path d="
M 743.985 573.617
C 744.053 572.988 744.036 573.352 743.987 572.525
C 745.517 572.274 747.13 572.262 748.678 572.27
C 749.261 572.272 749.893 572.044 750.381 572.397
C 750.317 573.533 750.477 574.962 750.146 576.036
C 750.148 576.106 751.24 574.432 751.564 574.041
C 752.762 572.595 754.376 572.1 756.21 572.095
C 761.074 572.081 764.773 575.388 765.972 580.03
C 767.297 585.154 767.176 590.392 763.932 594.761
C 762.045 597.302 757.928 599.376 754.725 598.08
C 752.865 597.328 751.252 595.179 750.388 593.45
C 749.784 595.147 750.051 597.475 750.052 599.287
C 750.054 602.076 749.569 605.038 749.842 607.804
C 747.959 608.025 745.607 608.303 743.725 608.188
C 744.942 596.747 743.267 585.092 743.985 573.617 Z
M 749.956 582.1
C 749.449 585.11 749.43 589.857 751.768 592.173
C 755.02 595.395 759.503 591.341 760.025 587.893
C 760.494 584.795 759.971 581.186 757.788 578.815
C 754.63 575.385 750.63 578.091 749.956 582.1 Z"
opacity="1" fill="rgb(115,115,117)" fill-rule="evenodd" />

</svg>